<svg width="48" height="48" viewBox="0 0 48 48" fill="none" xmlns="http://www.w3.org/2000/svg">
<circle id="Ellipse 1" cx="24" cy="24" r="24" fill="#CAE3F6"/>
<g id="Play">
<path id="Vector" fill-rule="evenodd" clip-rule="evenodd" d="M24 35.2C26.9704 35.2 29.8192 34.02 31.9196 31.9196C34.02 29.8192 35.2 26.9704 35.2 24C35.2 21.0296 34.02 18.1808 31.9196 16.08039C29.8192 13.97998 26.9704 12.79999 24 12.79999C21.0296 12.79999 18.1808 13.97998 16.08039 16.08039C13.97998 18.1808 12.79999 21.0296 12.79999 24C12.79999 26.9704 13.97998 29.8192 16.08039 31.9196C18.1808 34.02 21.0296 35.2 24 35.2ZM23.377 20.0352C23.1661 19.89452 22.9211 19.81372 22.6679 19.80142C22.4147 19.78913 22.163 19.84579 21.9395 19.96536C21.716 20.0849 21.5292 20.2629 21.399 20.4804C21.2687 20.6978 21.1999 20.9465 21.2 21.2V26.8C21.1999 27.0534 21.2687 27.3022 21.399 27.5196C21.5292 27.737 21.716 27.915 21.9395 28.0346C22.163 28.1542 22.4147 28.2108 22.6679 28.1985C22.9211 28.1862 23.1661 28.1055 23.377 27.9648L27.577 25.1648C27.7687 25.0369 27.9259 24.8637 28.0347 24.6605C28.1434 24.4573 28.2003 24.2304 28.2003 24C28.2003 23.7695 28.1434 23.5426 28.0347 23.3394C27.9259 23.1362 27.7687 22.963 27.577 22.8352L23.377 20.0352Z" fill="#0C8CE9"/>
</g>
</svg>