<svg width="28" height="28" viewBox="0 0 28 28" fill="none" xmlns="http://www.w3.org/2000/svg">
<g id="Play">
<path id="Vector" fill-rule="evenodd" clip-rule="evenodd" d="M14 25.2C16.9704 25.2 19.8192 24.02 21.9196 21.9196C24.02 19.8192 25.2 16.9704 25.2 14C25.2 11.0296 24.02 8.1808 21.9196 6.08039C19.8192 3.97998 16.9704 2.79999 14 2.79999C11.0296 2.79999 8.1808 3.97998 6.08039 6.08039C3.97998 8.1808 2.79999 11.0296 2.79999 14C2.79999 16.9704 3.97998 19.8192 6.08039 21.9196C8.1808 24.02 11.0296 25.2 14 25.2ZM13.377 10.0352C13.1661 9.89452 12.9211 9.81372 12.6679 9.80142C12.4147 9.78913 12.163 9.84579 11.9395 9.96536C11.716 10.0849 11.5292 10.2629 11.399 10.4804C11.2687 10.6978 11.1999 10.9465 11.2 11.2V16.8C11.1999 17.0534 11.2687 17.3022 11.399 17.5196C11.5292 17.737 11.716 17.915 11.9395 18.0346C12.163 18.1542 12.4147 18.2108 12.6679 18.1985C12.9211 18.1862 13.1661 18.1055 13.377 17.9648L17.577 15.1648C17.7687 15.0369 17.9259 14.8637 18.0347 14.6605C18.1434 14.4573 18.2003 14.2304 18.2003 14C18.2003 13.7695 18.1434 13.5426 18.0347 13.3394C17.9259 13.1362 17.7687 12.963 17.577 12.8352L13.377 10.0352Z" fill="#0C8CE9"/>
</g>
</svg>
